<svg xmlns="http://www.w3.org/2000/svg" version="1.1" xmlns:xlink="http://www.w3.org/1999/xlink" xmlns:svgjs="http://svgjs.dev/svgjs" width="1500" height="1500" viewBox="0 0 1500 1500"><g transform="matrix(1,0,0,1,-0.21332335329316265,-0.21332335329350371)"><svg viewBox="0 0 334 334" data-background-color="#000000" preserveAspectRatio="xMidYMid meet" height="1500" width="1500" xmlns="http://www.w3.org/2000/svg" xmlns:xlink="http://www.w3.org/1999/xlink"><g id="tight-bounds" transform="matrix(1,0,0,1,0.04749999999998522,0.04750000000001364)"><svg viewBox="0 0 333.90454557049503 333.90454557049503" height="333.90454557049503" width="333.90454557049503"><rect width="333.905" height="333.905" fill="url(#1b1f56b5-0560-43f8-9a80-17f6316d7b5e)" mask="url(#776a9d23-2472-4103-a2e1-07b6aef1af83)" data-fill-palette-color="tertiary"></rect><g><svg></svg></g><g><svg viewBox="0 0 333.90454557049503 333.90454557049503" height="333.90454557049503" width="333.90454557049503"><g><path d="M0 166.952c0-92.205 74.747-166.952 166.952-166.952 92.205 0 166.952 74.747 166.953 166.952 0 92.205-74.747 166.952-166.953 166.953-92.205 0-166.952-74.747-166.952-166.953zM166.952 316.63c82.665 0 149.677-67.013 149.678-149.678 0-82.665-67.013-149.677-149.678-149.677-82.665 0-149.677 67.013-149.677 149.677 0 82.665 67.013 149.677 149.677 149.678z" data-fill-palette-color="tertiary" fill="url(#1b1f56b5-0560-43f8-9a80-17f6316d7b5e)" stroke="transparent"></path><ellipse rx="160.27418187383762" ry="160.27418187383762" cx="166.95227278524752" cy="166.95227278524752" fill="url(#1b1f56b5-0560-43f8-9a80-17f6316d7b5e)" stroke="transparent" stroke-width="0" fill-opacity="1" data-fill-palette-color="tertiary"></ellipse></g><g transform="matrix(1,0,0,1,99.43695802820422,71.17305217166896)"><svg viewBox="0 0 135.0306295140866 191.55844122715712" height="191.55844122715712" width="135.0306295140866"><g><svg viewBox="0 0 135.0306295140866 191.55844122715712" height="191.55844122715712" width="135.0306295140866"><g><svg viewBox="0 0 135.0306295140866 191.55844122715712" height="191.55844122715712" width="135.0306295140866"><g><svg viewBox="0 0 135.0306295140866 191.55844122715712" height="191.55844122715712" width="135.0306295140866"><g id="textblocktransform"><svg viewBox="0 0 135.0306295140866 191.55844122715712" height="191.55844122715712" width="135.0306295140866" id="textblock"><g><svg viewBox="0 0 135.0306295140866 191.55844122715712" height="191.55844122715712" width="135.0306295140866"><g transform="matrix(1,0,0,1,0,0)"><svg width="135.0306295140866" viewBox="0.95 -39.7 28.020833333331996 39.75" height="191.55844122715712" data-palette-color="#000000"><path d="M21.15-34.65L3.45-34.65Q1.7-34.65 1.6-37.2L1.6-37.2Q1.6-39.7 3.45-39.7L3.45-39.7 25.4-39.7Q27.05-39.7 27.95-39.18 28.85-38.65 28.95-37.75L28.95-37.75Q29-36.9 28.93-36.13 28.85-35.35 28.55-34.95L28.55-34.95 8.85-5 26.95-5Q28.8-5 28.8-2.55L28.8-2.55Q28.9 0.05 26.95 0.05L26.95 0.05 4.55 0.05Q1.25 0.05 1-1.95L1-1.95Q0.9-2.8 1-3.53 1.1-4.25 1.4-4.65L1.4-4.65Q2.3-6.05 3.28-7.55 4.25-9.05 5.45-10.85 6.65-12.65 8.13-14.9 9.6-17.15 11.5-20.03 13.4-22.9 15.78-26.5 18.15-30.1 21.15-34.65L21.15-34.65Z" opacity="1" transform="matrix(1,0,0,1,0,0)" fill="#000000" class="wordmark-text-0" data-fill-palette-color="quaternary" id="text-0"></path></svg></g></svg></g></svg></g></svg></g><g></g></svg></g></svg></g></svg></g></svg></g><defs></defs><mask id="776a9d23-2472-4103-a2e1-07b6aef1af83"><g id="SvgjsG8369"><svg viewBox="0 0 333.90454557049503 333.90454557049503" height="333.90454557049503" width="333.90454557049503"><g><svg></svg></g><g><svg viewBox="0 0 333.90454557049503 333.90454557049503" height="333.90454557049503" width="333.90454557049503"><g><path d="M0 166.952c0-92.205 74.747-166.952 166.952-166.952 92.205 0 166.952 74.747 166.953 166.952 0 92.205-74.747 166.952-166.953 166.953-92.205 0-166.952-74.747-166.952-166.953zM166.952 316.63c82.665 0 149.677-67.013 149.678-149.678 0-82.665-67.013-149.677-149.678-149.677-82.665 0-149.677 67.013-149.677 149.677 0 82.665 67.013 149.677 149.677 149.678z" fill="white" stroke="transparent"></path><ellipse rx="160.27418187383762" ry="160.27418187383762" cx="166.95227278524752" cy="166.95227278524752" fill="white" stroke="transparent" stroke-width="0" fill-opacity="1"></ellipse></g><g transform="matrix(1,0,0,1,99.43695802820422,71.17305217166896)"><svg viewBox="0 0 135.0306295140866 191.55844122715712" height="191.55844122715712" width="135.0306295140866"><g><svg viewBox="0 0 135.0306295140866 191.55844122715712" height="191.55844122715712" width="135.0306295140866"><g><svg viewBox="0 0 135.0306295140866 191.55844122715712" height="191.55844122715712" width="135.0306295140866"><g><svg viewBox="0 0 135.0306295140866 191.55844122715712" height="191.55844122715712" width="135.0306295140866"><g id="SvgjsG8368"><svg viewBox="0 0 135.0306295140866 191.55844122715712" height="191.55844122715712" width="135.0306295140866" id="SvgjsSvg8367"><g><svg viewBox="0 0 135.0306295140866 191.55844122715712" height="191.55844122715712" width="135.0306295140866"><g transform="matrix(1,0,0,1,0,0)"><svg width="135.0306295140866" viewBox="0.95 -39.7 28.020833333331996 39.75" height="191.55844122715712" data-palette-color="#000000"><path d="M21.15-34.65L3.45-34.65Q1.7-34.65 1.6-37.2L1.6-37.2Q1.6-39.7 3.45-39.7L3.45-39.7 25.4-39.7Q27.05-39.7 27.95-39.18 28.85-38.65 28.95-37.75L28.95-37.75Q29-36.9 28.93-36.13 28.85-35.35 28.55-34.95L28.55-34.95 8.85-5 26.95-5Q28.8-5 28.8-2.55L28.8-2.55Q28.9 0.05 26.95 0.05L26.95 0.05 4.55 0.05Q1.25 0.05 1-1.95L1-1.95Q0.9-2.8 1-3.53 1.1-4.25 1.4-4.65L1.4-4.65Q2.3-6.05 3.28-7.55 4.25-9.05 5.45-10.85 6.65-12.65 8.13-14.9 9.6-17.15 11.5-20.03 13.4-22.9 15.78-26.5 18.15-30.1 21.15-34.65L21.15-34.65Z" opacity="1" transform="matrix(1,0,0,1,0,0)" fill="black" class="wordmark-text-0" id="SvgjsPath8366"></path></svg></g></svg></g></svg></g></svg></g><g></g></svg></g></svg></g></svg></g></svg></g><defs><mask></mask></defs></svg><rect width="333.90454557049503" height="333.90454557049503" fill="black" stroke="none" visibility="hidden"></rect></g></mask><linearGradient x1="0.054" x2="0.941" y1="0.5" y2="0.5" id="1b1f56b5-0560-43f8-9a80-17f6316d7b5e"><stop stop-color="#9c7945" offset="0"></stop><stop stop-color="#faf3aa" offset="0.498"></stop><stop stop-color="#9c7945" offset="1"></stop></linearGradient></svg><rect width="333.90454557049503" height="333.90454557049503" fill="none" stroke="none" visibility="hidden"></rect></g></svg></g></svg>